<svg width="1439" height="431" viewBox="0 0 1439 431" fill="none" xmlns="http://www.w3.org/2000/svg">
<mask id="mask0" mask-type="alpha" maskUnits="userSpaceOnUse" x="-1" y="0" width="1440" height="431">
<path d="M1439 317.297C1439 317.297 659.104 573.129 -1 317.297V0H1439V317.297Z" fill="#C4C4C4"/>
</mask>
<g mask="url(#mask0)">
<path d="M1439 317.297C1439 317.297 659.104 573.129 -1 317.297V0H1439V317.297Z" fill="url(#paint0_linear)" fill-opacity="0.18"/>
<path d="M579.388 362.359C308.141 281.055 106.036 375.307 -1 431V0H1439V410.78C1439 410.78 1305.37 302.232 1175.23 271.37C1045.09 240.509 918.446 463.99 579.388 362.359Z" fill="url(#paint1_linear)" fill-opacity="0.18"/>
<path d="M554.579 347.546C365.181 457.297 105.277 423 -1 392.132V0H1439V330.397C1439 330.397 1268.32 413.282 1055.1 392.132C951.382 381.844 791.325 210.357 554.579 347.546Z" fill="url(#paint2_linear)" fill-opacity="0.28"/>
<path d="M679.944 67.0073C428.796 19.8929 122.003 128.471 0 189V1.10332L1440 -1V68.4096C1290.79 88.0406 931.093 114.122 679.944 67.0073Z" fill="#C4C4C4" fill-opacity="0.2"/>
</g>
<defs>
<linearGradient id="paint0_linear" x1="719" y1="-1.96396e-05" x2="520.156" y2="434.503" gradientUnits="userSpaceOnUse">
<stop stop-color="#C4C4C4" stop-opacity="0"/>
<stop offset="1" stop-color="#BFBEC1" stop-opacity="0.62"/>
</linearGradient>
<linearGradient id="paint1_linear" x1="24" y1="352.325" x2="1283.42" y2="-214.312" gradientUnits="userSpaceOnUse">
<stop stop-color="#8C8A98"/>
<stop offset="1" stop-color="#A8A7AD" stop-opacity="0.03"/>
</linearGradient>
<linearGradient id="paint2_linear" x1="1810.5" y1="9.77318" x2="29.3878" y2="286.767" gradientUnits="userSpaceOnUse">
<stop stop-color="#BCBCBC" stop-opacity="0.75"/>
<stop offset="1" stop-color="#C4C4C4" stop-opacity="0"/>
</linearGradient>
</defs>
</svg>
