<svg width="1440" height="320" viewBox="0 0 1440 320" fill="none" xmlns="http://www.w3.org/2000/svg">
<path d="M0 160L60 176C120 192 240 224 360 213.3C480 203 600 149 720 112C840 75 960 53 1080 58.7C1200 64 1320 96 1380 112L1440 128V0H1380C1320 0 1200 0 1080 0C960 0 840 0 720 0C600 0 480 0 360 0C240 0 120 0 60 0H0V160Z" fill="#273036" fill-opacity="0.2"/>
<path d="M0 64L60 53.3C120 43 240 21 360 64C480 107 600 213 720 234.7C840 256 960 192 1080 192C1200 192 1320 256 1380 288L1440 320V0H1380C1320 0 1200 0 1080 0C960 0 840 0 720 0C600 0 480 0 360 0C240 0 120 0 60 0H0V64Z" fill="#273036" fill-opacity="0.1"/>
<path d="M-1 320L59 272C119 224 239 128 359 122.7C479 117 599 203 719 213.3C839 224 959 160 1079 133.3C1199 107 1319 117 1379 122.7L1439 128V0H1379C1319 0 1199 0 1079 0C959 0 839 0 719 0C599 0 479 0 359 0C239 0 119 0 59 0H-1V320Z" fill="#273036" fill-opacity="0.1"/>
</svg>
